Coordinates
version=1
nRows=9
nColumns=24
inDegrees=yes

Units are S.I. units (second, meters, Newtons, ...)
Angles are in degrees.

endheader
time	pelvis_tilt	pelvis_list	pelvis_rotation	pelvis_tx	pelvis_ty	pelvis_tz	hip_flexion_r	hip_adduction_r	hip_rotation_r	knee_angle_r	ankle_angle_r	subtalar_angle_r	mtp_angle_r	hip_flexion_l	hip_adduction_l	hip_rotation_l	knee_angle_l	ankle_angle_l	subtalar_angle_l	mtp_angle_l	lumbar_extension	lumbar_bending	lumbar_rotation
      5.01000000	     -8.99970485	     -9.83670819	      4.93187314	     -1.44298714	     -0.02308549	      0.49448029	     20.37061450	     10.78195373	     -1.86505347	    -16.38493919	     -4.54503010	     -5.85076060	      3.25535124	     17.86443754	     -9.63283860	      6.49922880	    -62.09690414	    -26.81228928	     -7.98205702	     25.14311230	      7.60597697	      9.07788624	     -6.54828424
      5.01500000	     -8.87329769	     -9.66738000	      4.96234026	     -1.43735446	     -0.02242641	      0.49519617	     19.76617574	     10.75179833	     -1.68123291	    -16.29668917	     -4.26334895	     -6.00612633	      3.21217900	     18.59807664	     -9.35064051	      6.48408343	    -62.85069313	    -26.33383204	     -9.33484811	     24.42382712	      7.35219593	      8.86401946	     -6.32130660
      5.02000000	     -8.76816896	     -9.44637687	      4.98819638	     -1.43175127	     -0.02174180	      0.49593155	     19.16679499	     10.66914210	     -1.45922051	    -16.18715055	     -3.97196737	     -6.18972959	      3.16670125	     19.32986855	     -9.00879719	      6.47221434	    -63.48749500	    -25.83060673	    -10.42319400	     23.88498612	      7.11599340	      8.59086264	     -6.08406594
      5.02500000	     -8.69801512	     -9.20596170	      5.00147300	     -1.42613694	     -0.02102196	      0.49663489	     18.57837258	     10.55667430	     -1.20591190	    -16.03536283	     -3.72232516	     -6.31553020	      3.13913890	     20.05963526	     -8.63887508	      6.46891688	    -63.98762300	    -25.21633830	    -11.23322919	     23.62760267	      6.92268508	      8.29512694	     -5.86507092
      5.03000000	     -8.61703091	     -8.92324588	      4.93049919	     -1.42063907	     -0.02026688	      0.49740924	     18.00343724	     10.42290428	     -0.96733374	    -15.92808181	     -3.50473763	     -6.47434550	      3.09263534	     20.75030726	     -8.26347199	      6.32120036	    -64.39972466	    -24.64478240	    -11.98823338	     23.21851334	      6.67972275	      7.97889893	     -5.47041709
      5.03500000	     -8.58434164	     -8.61204351	      4.92091099	     -1.41510598	     -0.01952192	      0.49810679	     17.44573683	     10.22892082	     -0.74000254	    -15.76047248	     -3.25807407	     -6.61300268	      3.07327117	     21.47378892	     -7.82394378	      6.26573648	    -64.68219797	    -23.98175262	    -12.40443821	     23.16143762	      6.51287278	      7.61286412	     -5.19240102
      5.04000000	     -8.58276944	     -8.27855865	      4.91021585	     -1.40958037	     -0.01875077	      0.49873683	     16.90306708	      9.99676897	     -0.48828891	    -15.56290405	     -3.04706682	     -6.70398514	      3.05862166	     22.19783021	     -7.34381309	      6.21364232	    -64.84206549	    -23.32263870	    -12.70658219	     23.19398318	      6.38152040	      7.22558817	     -4.92682762
      5.04500000	     -8.58049379	     -7.86542628	      4.70911432	     -1.40409251	     -0.01795823	      0.49961327	     16.37251328	      9.73701682	     -0.08989082	    -15.41941706	     -2.81128686	     -6.78351873	      3.06058093	     22.84067085	     -6.87899886	      5.92710127	    -64.88498990	    -22.50141429	    -12.69214247	     23.25659797	      6.20754561	      6.78540330	     -4.40393272
      5.05000000	     -8.60457726	     -7.45873141	      4.58395830	     -1.39864183	     -0.01718439	      0.50035106	     15.85993593	      9.44597465	      0.24474970	    -15.23688257	     -2.59511077	     -6.85523920	      3.05845448	     23.51392555	     -6.37926258	      5.73389549	    -64.83063072	    -21.67170550	    -12.53421125	     23.41776868	      6.07895378	      6.34024935	     -3.99682659
